<?xml version="1.0" encoding="utf-8"?>
<!-- Generator: Adobe Illustrator 16.0.0, SVG Export Plug-In . SVG Version: 6.00 Build 0)  -->
<!DOCTYPE svg PUBLIC "-//W3C//DTD SVG 1.1//EN" "http://www.w3.org/Graphics/SVG/1.1/DTD/svg11.dtd">
<svg version="1.1" id="Capa_1" xmlns="http://www.w3.org/2000/svg" xmlns:xlink="http://www.w3.org/1999/xlink" x="0px" y="0px"
	 width="259.539px" height="50px" viewBox="0 0 259.539 50" enable-background="new 0 0 259.539 50" xml:space="preserve">
<g>
	<g>
		<path fill="#036222" d="M22.247,48.824c-4.767,0-8.757-0.643-11.861-1.906c-3.138-1.278-5.25-3.082-6.276-5.363
			c-1.015-2.248-1.528-5.66-1.528-10.145V18.103c0-3.283,0.157-5.784,0.468-7.437c0.316-1.691,1.269-3.335,2.833-4.889
			c1.552-1.543,3.728-2.773,6.469-3.655c2.727-0.876,5.901-1.32,9.434-1.32c4.794,0,8.813,0.688,11.944,2.045
			c3.155,1.37,5.264,3.112,6.267,5.178c0.991,2.045,1.492,5.248,1.492,9.52v6.227H24.704v-8.327c0-2.789-0.262-3.804-0.48-4.165
			c-0.292-0.479-0.983-0.722-2.055-0.722c-1.216,0-1.988,0.3-2.293,0.89c-0.338,0.649-0.51,2.12-0.51,4.373v18.181
			c0,2.159,0.172,3.571,0.509,4.199c0.304,0.576,1.038,0.865,2.179,0.865c1.093,0,1.809-0.293,2.126-0.869
			c0.238-0.438,0.524-1.594,0.524-4.631v-7.129l16.786-0.096v4.762c0,4.734-0.469,8.148-1.396,10.148
			c-0.936,2.024-3.016,3.813-6.184,5.319C30.763,48.066,26.84,48.824,22.247,48.824z"/>
	</g>
	<g>
		<path fill="#036222" d="M67.519,47.868l-0.871-8.188h-5.302l-0.976,8.188H43.011l8.379-46.11h23.913l9.392,46.11H67.519z
			 M66.147,31.045c-0.265-1.627-0.54-3.053-0.83-4.557c-0.511-2.64-1.034-5.358-1.521-9.336c-0.455,2.347-0.85,4.271-1.178,5.878
			c-0.684,3.337-1.145,5.586-1.417,8.014H66.147z"/>
	</g>
	<g>
		<polygon fill="#036222" points="86.829,47.868 86.829,1.758 103.614,1.758 103.614,36.486 113.631,36.673 113.477,47.868 		"/>
	</g>
	<g>
		<rect x="116.851" y="1.758" fill="#036222" width="16.787" height="46.11"/>
	</g>
	<g>
		<path fill="#EDC620" d="M175.47,47.868l-0.018-27.965l-5.135,27.965h-10.521l-5.445-27.483l-0.018,27.483h-14.744V1.758h21.498
			l0.051,0.219c0.619,2.726,1.268,5.987,1.928,9.696l2.01,10.111l3.512-20.026h21.626v46.11H175.47z"/>
	</g>
	<g>
		<rect x="196.165" y="1.758" fill="#EDC620" width="16.787" height="46.11"/>
	</g>
	<g>
		<path fill="#EDC620" d="M237.489,48.824c-3.351,0-6.404-0.406-9.079-1.206c-2.688-0.808-4.888-2.037-6.532-3.657
			c-1.654-1.63-2.654-3.432-2.971-5.358c-0.309-1.882-0.465-5.21-0.465-9.894v-7.793c0-4.565,0.15-7.851,0.445-9.762
			c0.303-1.957,1.264-3.764,2.852-5.373c1.582-1.601,3.74-2.845,6.416-3.699c2.659-0.85,5.801-1.279,9.334-1.279
			c3.354,0,6.408,0.406,9.08,1.207c2.691,0.808,4.89,2.036,6.533,3.656c1.653,1.629,2.652,3.432,2.97,5.359
			c0.311,1.881,0.467,5.209,0.467,9.892v7.792c0,4.566-0.151,7.852-0.446,9.764c-0.304,1.953-1.264,3.761-2.852,5.372
			c-1.58,1.601-3.738,2.846-6.416,3.7C244.163,48.395,241.021,48.824,237.489,48.824z M237.566,9.07c-0.763,0-1.35,0.212-1.74,0.629
			c-0.273,0.29-0.598,1.226-0.598,4.044v21.269c0,3.227,0.226,4.378,0.414,4.775c0.247,0.517,0.839,0.768,1.81,0.768
			c0.99,0,1.602-0.295,1.863-0.898c0.291-0.675,0.439-2.35,0.439-4.982V13.743c0-2.568-0.244-3.556-0.447-3.933
			C239.035,9.313,238.466,9.07,237.566,9.07z"/>
	</g>
</g>
</svg>
